<svg width="375" height="120" viewBox="0 0 375 120" fill="none" xmlns="http://www.w3.org/2000/svg">
<path d="M58.36 89V88.232C59.704 88.232 61.048 87.72 62.392 86.696C63.8 85.672 64.856 84.648 65.56 83.624L77.56 65.96L60.472 41H67.48L82.168 62.408L96.376 41H97.336L82.552 63.08L100.408 89H93.4L77.944 66.536L67.576 82.088C67.448 82.28 67.288 82.536 67.096 82.856C66.904 83.176 66.488 83.72 65.848 84.488C65.208 85.256 64.536 85.928 63.832 86.504C61.912 88.168 60.088 89 58.36 89ZM108.55 41H115.27V52.904C116.358 49.96 118.374 47.176 121.318 44.552C124.262 41.928 127.59 40.616 131.302 40.616C144.294 40.616 150.79 48.232 150.79 63.464C150.79 80.744 142.406 89.384 125.638 89.384C122.63 89.384 119.174 88.68 115.27 87.272V113H108.55V41ZM131.206 41.384C127.238 41.384 123.654 43.112 120.454 46.568C117.254 49.96 115.526 53.032 115.27 55.784V86.408C119.174 87.88 122.598 88.616 125.542 88.616C137.894 88.616 144.07 80.2 144.07 63.368C144.07 48.712 139.782 41.384 131.206 41.384ZM165.024 65.576C165.024 73.512 166.4 79.336 169.152 83.048C171.968 86.76 175.648 88.616 180.192 88.616C186.592 88.616 192.288 87.656 197.28 85.736L197.568 86.408C192.448 88.392 186.656 89.384 180.192 89.384C173.792 89.384 168.576 87.464 164.544 83.624C160.512 79.784 158.496 73.864 158.496 65.864C158.496 57.864 160.608 51.656 164.832 47.24C169.056 42.824 174.432 40.616 180.96 40.616C186.208 40.616 190.624 42.184 194.208 45.32C197.792 48.456 199.584 53.096 199.584 59.24C199.584 59.56 199.584 59.88 199.584 60.2H165.312C165.12 61.928 165.024 63.72 165.024 65.576ZM193.056 59.432C192.992 53.288 191.808 48.744 189.504 45.8C187.2 42.856 184.224 41.384 180.576 41.384C176.928 41.384 173.664 42.984 170.784 46.184C167.968 49.384 166.176 53.8 165.408 59.432H193.056ZM243.336 89C240.712 89 238.696 88.424 237.288 87.272C235.944 86.12 235.24 84.968 235.176 83.816L235.08 82.184V52.04C235.08 46.984 233.768 43.752 231.144 42.344C229.8 41.704 228.136 41.384 226.152 41.384C222.056 41.384 218.376 43.016 215.112 46.28C211.848 49.48 210.216 52.36 210.216 54.92V89H203.496V41H210.216V51.944C211.304 49.192 213.32 46.632 216.264 44.264C219.208 41.832 222.44 40.616 225.96 40.616C229.48 40.616 232.328 40.968 234.504 41.672C236.744 42.312 238.376 43.24 239.4 44.456C241 46.44 241.8 49 241.8 52.136V82.184C241.8 84.04 242.152 85.48 242.856 86.504C243.624 87.464 244.392 87.976 245.16 88.04L246.216 88.232H249.192V89H243.336Z" fill="white"/>
<path d="M300.632 89C298.008 89 295.992 88.424 294.584 87.272C293.24 86.12 292.536 84.968 292.472 83.816L292.376 82.184V41H299.096V82.184C299.096 84.04 299.448 85.48 300.152 86.504C300.92 87.464 301.656 87.976 302.36 88.04L303.512 88.232H306.488V89H300.632ZM292.952 30.248C292.184 29.48 291.8 28.52 291.8 27.368C291.8 26.216 292.184 25.256 292.952 24.488C293.72 23.656 294.68 23.24 295.832 23.24C296.984 23.24 297.944 23.656 298.712 24.488C299.544 25.256 299.96 26.216 299.96 27.368C299.96 28.52 299.544 29.48 298.712 30.248C297.944 31.016 296.984 31.4 295.832 31.4C294.68 31.4 293.72 31.016 292.952 30.248ZM332.155 89.384C325.435 89.384 319.963 87.464 315.739 83.624C311.515 79.784 309.403 73.864 309.403 65.864C309.403 57.864 311.579 51.656 315.931 47.24C320.347 42.824 325.915 40.616 332.635 40.616C339.419 40.616 344.923 42.536 349.147 46.376C353.371 50.216 355.483 56.136 355.483 64.136C355.483 72.136 353.275 78.344 348.859 82.76C344.507 87.176 338.939 89.384 332.155 89.384ZM332.827 41.384C327.963 41.384 323.931 43.56 320.731 47.912C317.531 52.2 315.931 58.216 315.931 65.96C315.931 73.64 317.403 79.336 320.347 83.048C323.291 86.76 327.195 88.616 332.059 88.616C336.923 88.616 340.955 86.472 344.155 82.184C347.355 77.832 348.955 71.816 348.955 64.136C348.955 56.392 347.483 50.664 344.539 46.952C341.595 43.24 337.691 41.384 332.827 41.384Z" fill="white"/>
<path d="M7.81625 52.8929C7.8 53.3328 7.8 53.7565 7.8 54.1964V56.8036C7.8 57.2435 7.8 57.6672 7.81625 58.1071H5.2C2.32375 58.1071 0 60.4373 0 63.3214C0 66.2056 2.32375 68.5357 5.2 68.5357H9.79875C14.6087 82.2069 27.625 92 42.9 92H46.8C49.6762 92 52 89.6699 52 86.7857C52 83.9016 49.6762 81.5714 46.8 81.5714H42.9C33.4912 81.5714 25.3175 76.292 21.1413 68.5357H41.6C44.4762 68.5357 46.8 66.2056 46.8 63.3214C46.8 60.4373 44.4762 58.1071 41.6 58.1071H18.2325C18.2162 57.6835 18.2 57.2435 18.2 56.8036V54.1964C18.2 53.7565 18.2162 53.3165 18.2325 52.8929H41.6C44.4762 52.8929 46.8 50.5627 46.8 47.6786C46.8 44.7944 44.4762 42.4643 41.6 42.4643H21.1413C25.3175 34.708 33.4912 29.4286 42.9 29.4286H46.8C49.6762 29.4286 52 27.0984 52 24.2143C52 21.3301 49.6762 19 46.8 19H42.9C27.625 19 14.6087 28.7931 9.79875 42.4643H5.2C2.32375 42.4643 0 44.7944 0 47.6786C0 50.5627 2.32375 52.8929 5.2 52.8929H7.81625Z" fill="#0047FF"/>
<path d="M269.1 28C271.3 28 273.078 29.7868 273.078 31.9984V36.4592C273.277 36.4842 273.464 36.5092 273.663 36.5467C273.713 36.5592 273.75 36.5592 273.8 36.5717L279.768 37.6712C281.932 38.0711 283.361 40.1578 282.964 42.3194C282.566 44.4811 280.489 45.9305 278.338 45.5307L272.432 44.4436C268.54 43.8688 265.108 44.2562 262.696 45.2183C260.284 46.1804 259.314 47.5049 259.09 48.7294C258.841 50.0664 259.028 50.8161 259.239 51.2784C259.463 51.7657 259.923 52.3155 260.831 52.9278C262.858 54.2647 265.966 55.1394 269.995 56.214L270.355 56.3139C273.912 57.2636 278.263 58.4131 281.496 60.5373C283.262 61.6993 284.928 63.2737 285.96 65.4729C287.017 67.7095 287.241 70.2085 286.756 72.87C285.898 77.6181 282.64 80.7919 278.599 82.4537C276.896 83.1535 275.043 83.6033 273.078 83.8282V88.0016C273.078 90.2132 271.3 92 269.1 92C266.899 92 265.121 90.2132 265.121 88.0016V83.6408C265.071 83.6283 265.009 83.6283 264.959 83.6158H264.934C261.9 83.141 256.914 81.829 253.557 80.3296C251.555 79.4299 250.647 77.0683 251.543 75.0566C252.438 73.0449 254.788 72.1328 256.79 73.0324C259.389 74.1945 263.666 75.344 266.14 75.7314C270.107 76.3186 273.377 75.9813 275.59 75.0691C277.691 74.207 278.649 72.9574 278.922 71.458C279.159 70.1335 278.972 69.3713 278.761 68.909C278.525 68.4092 278.065 67.8594 277.144 67.2472C275.105 65.9102 271.984 65.0355 267.943 63.961L267.595 63.8735C264.051 62.8989 259.699 61.7368 256.467 59.6127C254.701 58.4506 253.047 56.8637 252.015 54.6646C250.971 52.428 250.759 49.9289 251.257 47.2675C252.152 42.4943 255.708 39.3955 259.749 37.7837C261.403 37.1214 263.218 36.6716 265.121 36.4092V31.9984C265.121 29.7868 266.899 28 269.1 28Z" fill="#169B00"/>
</svg>
