<svg width="24" height="31" viewBox="0 0 24 31" fill="none" xmlns="http://www.w3.org/2000/svg">
<path d="M3.6075 14.3929C3.6 14.5797 3.6 14.7596 3.6 14.9464V16.0536C3.6 16.2404 3.6 16.4203 3.6075 16.6071H2.4C1.0725 16.6071 0 17.5967 0 18.8214C0 20.0462 1.0725 21.0357 2.4 21.0357H4.5225C6.7425 26.8413 12.75 31 19.8 31H21.6C22.9275 31 24 30.0105 24 28.7857C24 27.5609 22.9275 26.5714 21.6 26.5714H19.8C15.4575 26.5714 11.685 24.3295 9.7575 21.0357H19.2C20.5275 21.0357 21.6 20.0462 21.6 18.8214C21.6 17.5967 20.5275 16.6071 19.2 16.6071H8.415C8.4075 16.4272 8.4 16.2404 8.4 16.0536V14.9464C8.4 14.7596 8.4075 14.5728 8.415 14.3929H19.2C20.5275 14.3929 21.6 13.4033 21.6 12.1786C21.6 10.9538 20.5275 9.96429 19.2 9.96429H9.7575C11.685 6.67054 15.4575 4.42857 19.8 4.42857H21.6C22.9275 4.42857 24 3.43906 24 2.21429C24 0.989509 22.9275 0 21.6 0H19.8C12.75 0 6.7425 4.15871 4.5225 9.96429H2.4C1.0725 9.96429 0 10.9538 0 12.1786C0 13.4033 1.0725 14.3929 2.4 14.3929H3.6075Z" fill="#0047FF"/>
</svg>
