<svg width="375" height="120" viewBox="0 0 375 120" fill="none" xmlns="http://www.w3.org/2000/svg">
<path d="M66.36 89V88.232C67.704 88.232 69.048 87.72 70.392 86.696C71.8 85.672 72.856 84.648 73.56 83.624L85.56 65.96L68.472 41H75.48L90.168 62.408L104.376 41H105.336L90.552 63.08L108.408 89H101.4L85.944 66.536L75.576 82.088C75.448 82.28 75.288 82.536 75.096 82.856C74.904 83.176 74.488 83.72 73.848 84.488C73.208 85.256 72.536 85.928 71.832 86.504C69.912 88.168 68.088 89 66.36 89ZM116.55 41H123.27V52.904C124.358 49.96 126.374 47.176 129.318 44.552C132.262 41.928 135.59 40.616 139.302 40.616C152.294 40.616 158.79 48.232 158.79 63.464C158.79 80.744 150.406 89.384 133.638 89.384C130.63 89.384 127.174 88.68 123.27 87.272V113H116.55V41ZM139.206 41.384C135.238 41.384 131.654 43.112 128.454 46.568C125.254 49.96 123.526 53.032 123.27 55.784V86.408C127.174 87.88 130.598 88.616 133.542 88.616C145.894 88.616 152.07 80.2 152.07 63.368C152.07 48.712 147.782 41.384 139.206 41.384ZM173.024 65.576C173.024 73.512 174.4 79.336 177.152 83.048C179.968 86.76 183.648 88.616 188.192 88.616C194.592 88.616 200.288 87.656 205.28 85.736L205.568 86.408C200.448 88.392 194.656 89.384 188.192 89.384C181.792 89.384 176.576 87.464 172.544 83.624C168.512 79.784 166.496 73.864 166.496 65.864C166.496 57.864 168.608 51.656 172.832 47.24C177.056 42.824 182.432 40.616 188.96 40.616C194.208 40.616 198.624 42.184 202.208 45.32C205.792 48.456 207.584 53.096 207.584 59.24C207.584 59.56 207.584 59.88 207.584 60.2H173.312C173.12 61.928 173.024 63.72 173.024 65.576ZM201.056 59.432C200.992 53.288 199.808 48.744 197.504 45.8C195.2 42.856 192.224 41.384 188.576 41.384C184.928 41.384 181.664 42.984 178.784 46.184C175.968 49.384 174.176 53.8 173.408 59.432H201.056ZM251.336 89C248.712 89 246.696 88.424 245.288 87.272C243.944 86.12 243.24 84.968 243.176 83.816L243.08 82.184V52.04C243.08 46.984 241.768 43.752 239.144 42.344C237.8 41.704 236.136 41.384 234.152 41.384C230.056 41.384 226.376 43.016 223.112 46.28C219.848 49.48 218.216 52.36 218.216 54.92V89H211.496V41H218.216V51.944C219.304 49.192 221.32 46.632 224.264 44.264C227.208 41.832 230.44 40.616 233.96 40.616C237.48 40.616 240.328 40.968 242.504 41.672C244.744 42.312 246.376 43.24 247.4 44.456C249 46.44 249.8 49 249.8 52.136V82.184C249.8 84.04 250.152 85.48 250.856 86.504C251.624 87.464 252.392 87.976 253.16 88.04L254.216 88.232H257.192V89H251.336Z" fill="black"/>
<path d="M308.632 89C306.008 89 303.992 88.424 302.584 87.272C301.24 86.12 300.536 84.968 300.472 83.816L300.376 82.184V41H307.096V82.184C307.096 84.04 307.448 85.48 308.152 86.504C308.92 87.464 309.656 87.976 310.36 88.04L311.512 88.232H314.488V89H308.632ZM300.952 30.248C300.184 29.48 299.8 28.52 299.8 27.368C299.8 26.216 300.184 25.256 300.952 24.488C301.72 23.656 302.68 23.24 303.832 23.24C304.984 23.24 305.944 23.656 306.712 24.488C307.544 25.256 307.96 26.216 307.96 27.368C307.96 28.52 307.544 29.48 306.712 30.248C305.944 31.016 304.984 31.4 303.832 31.4C302.68 31.4 301.72 31.016 300.952 30.248ZM340.155 89.384C333.435 89.384 327.963 87.464 323.739 83.624C319.515 79.784 317.403 73.864 317.403 65.864C317.403 57.864 319.579 51.656 323.931 47.24C328.347 42.824 333.915 40.616 340.635 40.616C347.419 40.616 352.923 42.536 357.147 46.376C361.371 50.216 363.483 56.136 363.483 64.136C363.483 72.136 361.275 78.344 356.859 82.76C352.507 87.176 346.939 89.384 340.155 89.384ZM340.827 41.384C335.963 41.384 331.931 43.56 328.731 47.912C325.531 52.2 323.931 58.216 323.931 65.96C323.931 73.64 325.403 79.336 328.347 83.048C331.291 86.76 335.195 88.616 340.059 88.616C344.923 88.616 348.955 86.472 352.155 82.184C355.355 77.832 356.955 71.816 356.955 64.136C356.955 56.392 355.483 50.664 352.539 46.952C349.595 43.24 345.691 41.384 340.827 41.384Z" fill="black"/>
<path d="M15.8162 52.8929C15.8 53.3328 15.8 53.7565 15.8 54.1964V56.8036C15.8 57.2435 15.8 57.6672 15.8162 58.1071H13.2C10.3237 58.1071 8 60.4373 8 63.3214C8 66.2056 10.3237 68.5357 13.2 68.5357H17.7987C22.6087 82.2069 35.625 92 50.9 92H54.8C57.6762 92 60 89.6699 60 86.7857C60 83.9016 57.6762 81.5714 54.8 81.5714H50.9C41.4912 81.5714 33.3175 76.292 29.1413 68.5357H49.6C52.4762 68.5357 54.8 66.2056 54.8 63.3214C54.8 60.4373 52.4762 58.1071 49.6 58.1071H26.2325C26.2162 57.6835 26.2 57.2435 26.2 56.8036V54.1964C26.2 53.7565 26.2162 53.3165 26.2325 52.8929H49.6C52.4762 52.8929 54.8 50.5627 54.8 47.6786C54.8 44.7944 52.4762 42.4643 49.6 42.4643H29.1413C33.3175 34.708 41.4912 29.4286 50.9 29.4286H54.8C57.6762 29.4286 60 27.0984 60 24.2143C60 21.3301 57.6762 19 54.8 19H50.9C35.625 19 22.6087 28.7931 17.7987 42.4643H13.2C10.3237 42.4643 8 44.7944 8 47.6786C8 50.5627 10.3237 52.8929 13.2 52.8929H15.8162Z" fill="#0047FF"/>
<path d="M277.1 28C279.3 28 281.078 29.7868 281.078 31.9984V36.4592C281.277 36.4842 281.464 36.5092 281.663 36.5467C281.713 36.5592 281.75 36.5592 281.8 36.5717L287.768 37.6712C289.932 38.0711 291.361 40.1578 290.964 42.3194C290.566 44.4811 288.489 45.9305 286.338 45.5307L280.432 44.4436C276.54 43.8688 273.108 44.2562 270.696 45.2183C268.284 46.1804 267.314 47.5049 267.09 48.7294C266.841 50.0664 267.028 50.8161 267.239 51.2784C267.463 51.7657 267.923 52.3155 268.831 52.9278C270.858 54.2647 273.966 55.1394 277.995 56.214L278.355 56.3139C281.912 57.2636 286.263 58.4131 289.496 60.5373C291.262 61.6993 292.928 63.2737 293.96 65.4729C295.017 67.7095 295.241 70.2085 294.756 72.87C293.898 77.6181 290.64 80.7919 286.599 82.4537C284.896 83.1535 283.043 83.6033 281.078 83.8282V88.0016C281.078 90.2132 279.3 92 277.1 92C274.899 92 273.121 90.2132 273.121 88.0016V83.6408C273.071 83.6283 273.009 83.6283 272.959 83.6158H272.934C269.9 83.141 264.914 81.829 261.557 80.3296C259.555 79.4299 258.647 77.0683 259.543 75.0566C260.438 73.0449 262.788 72.1328 264.79 73.0324C267.389 74.1945 271.666 75.344 274.14 75.7314C278.107 76.3186 281.377 75.9813 283.59 75.0691C285.691 74.207 286.649 72.9574 286.922 71.458C287.159 70.1335 286.972 69.3713 286.761 68.909C286.525 68.4092 286.065 67.8594 285.144 67.2472C283.105 65.9102 279.984 65.0355 275.943 63.961L275.595 63.8735C272.051 62.8989 267.699 61.7368 264.467 59.6127C262.701 58.4506 261.047 56.8637 260.015 54.6646C258.971 52.428 258.759 49.9289 259.257 47.2675C260.152 42.4943 263.708 39.3955 267.749 37.7837C269.403 37.1214 271.218 36.6716 273.121 36.4092V31.9984C273.121 29.7868 274.899 28 277.1 28Z" fill="#169B00"/>
</svg>
